<svg width="1363" height="163" viewBox="0 0 1363 163" fill="none" xmlns="http://www.w3.org/2000/svg">
<path d="M0 15C0 6.71573 6.71573 0 15 0H37V163H15C6.71573 163 0 156.284 0 148V15Z" fill="#424242"/>
<rect width="1097" height="163" transform="translate(37)" fill="#F0F0F0"/>
<path d="M101.906 53.9219L94.3945 51.2383V48.0859L104.602 52.375V54.6367L101.906 53.9219ZM94.3945 56.1719L101.918 53.4297L104.602 52.7852V55.0352L94.3945 59.3242V56.1719ZM112.898 43.9375H119.262C120.566 43.9375 121.688 44.1328 122.625 44.5234C123.57 44.9141 124.297 45.4922 124.805 46.2578C125.312 47.0234 125.566 47.9648 125.566 49.082C125.566 49.9961 125.41 50.7812 125.098 51.4375C124.793 52.0859 124.359 52.6289 123.797 53.0664C123.242 53.4961 122.59 53.8398 121.84 54.0977L120.727 54.6836H115.195L115.172 51.9414H119.285C119.902 51.9414 120.414 51.832 120.82 51.6133C121.227 51.3945 121.531 51.0898 121.734 50.6992C121.945 50.3086 122.051 49.8555 122.051 49.3398C122.051 48.793 121.949 48.3203 121.746 47.9219C121.543 47.5234 121.234 47.2188 120.82 47.0078C120.406 46.7969 119.887 46.6914 119.262 46.6914H116.414V61H112.898V43.9375ZM122.438 61L118.547 53.3945L122.262 53.3711L126.199 60.8359V61H122.438ZM135.211 46.8555L130.57 61H126.832L133.172 43.9375H135.551L135.211 46.8555ZM139.066 61L134.414 46.8555L134.039 43.9375H136.441L142.816 61H139.066ZM138.855 54.6484V57.4023H129.844V54.6484H138.855ZM157.711 52.082V58.8438C157.445 59.1641 157.035 59.5117 156.48 59.8867C155.926 60.2539 155.211 60.5703 154.336 60.8359C153.461 61.1016 152.402 61.2344 151.16 61.2344C150.059 61.2344 149.055 61.0547 148.148 60.6953C147.242 60.3281 146.461 59.793 145.805 59.0898C145.156 58.3867 144.656 57.5273 144.305 56.5117C143.953 55.4883 143.777 54.3203 143.777 53.0078V51.9414C143.777 50.6289 143.945 49.4609 144.281 48.4375C144.625 47.4141 145.113 46.5508 145.746 45.8477C146.379 45.1445 147.133 44.6094 148.008 44.2422C148.883 43.875 149.855 43.6914 150.926 43.6914C152.41 43.6914 153.629 43.9336 154.582 44.418C155.535 44.8945 156.262 45.5586 156.762 46.4102C157.27 47.2539 157.582 48.2227 157.699 49.3164H154.289C154.203 48.7383 154.039 48.2344 153.797 47.8047C153.555 47.375 153.207 47.0391 152.754 46.7969C152.309 46.5547 151.73 46.4336 151.02 46.4336C150.434 46.4336 149.91 46.5547 149.449 46.7969C148.996 47.0312 148.613 47.3789 148.301 47.8398C147.988 48.3008 147.75 48.8711 147.586 49.5508C147.422 50.2305 147.34 51.0195 147.34 51.918V53.0078C147.34 53.8984 147.426 54.6875 147.598 55.375C147.77 56.0547 148.023 56.6289 148.359 57.0977C148.703 57.5586 149.125 57.9062 149.625 58.1406C150.125 58.375 150.707 58.4922 151.371 58.4922C151.926 58.4922 152.387 58.4453 152.754 58.3516C153.129 58.2578 153.43 58.1445 153.656 58.0117C153.891 57.8711 154.07 57.7383 154.195 57.6133V54.5898H150.984V52.082H157.711ZM175.406 56.5352C175.406 56.2305 175.359 55.957 175.266 55.7148C175.18 55.4648 175.016 55.2383 174.773 55.0352C174.531 54.8242 174.191 54.6172 173.754 54.4141C173.316 54.2109 172.75 54 172.055 53.7812C171.281 53.5312 170.547 53.25 169.852 52.9375C169.164 52.625 168.555 52.2617 168.023 51.8477C167.5 51.4258 167.086 50.9375 166.781 50.3828C166.484 49.8281 166.336 49.1836 166.336 48.4492C166.336 47.7383 166.492 47.0938 166.805 46.5156C167.117 45.9297 167.555 45.4297 168.117 45.0156C168.68 44.5938 169.344 44.2695 170.109 44.043C170.883 43.8164 171.73 43.7031 172.652 43.7031C173.91 43.7031 175.008 43.9297 175.945 44.3828C176.883 44.8359 177.609 45.457 178.125 46.2461C178.648 47.0352 178.91 47.9375 178.91 48.9531H175.418C175.418 48.4531 175.312 48.0156 175.102 47.6406C174.898 47.2578 174.586 46.957 174.164 46.7383C173.75 46.5195 173.227 46.4102 172.594 46.4102C171.984 46.4102 171.477 46.5039 171.07 46.6914C170.664 46.8711 170.359 47.1172 170.156 47.4297C169.953 47.7344 169.852 48.0781 169.852 48.4609C169.852 48.75 169.922 49.0117 170.062 49.2461C170.211 49.4805 170.43 49.6992 170.719 49.9023C171.008 50.1055 171.363 50.2969 171.785 50.4766C172.207 50.6562 172.695 50.832 173.25 51.0039C174.18 51.2852 174.996 51.6016 175.699 51.9531C176.41 52.3047 177.004 52.6992 177.48 53.1367C177.957 53.5742 178.316 54.0703 178.559 54.625C178.801 55.1797 178.922 55.8086 178.922 56.5117C178.922 57.2539 178.777 57.918 178.488 58.5039C178.199 59.0898 177.781 59.5859 177.234 59.9922C176.688 60.3984 176.035 60.707 175.277 60.918C174.52 61.1289 173.672 61.2344 172.734 61.2344C171.891 61.2344 171.059 61.125 170.238 60.9062C169.418 60.6797 168.672 60.3398 168 59.8867C167.336 59.4336 166.805 58.8555 166.406 58.1523C166.008 57.4492 165.809 56.6172 165.809 55.6562H169.336C169.336 56.1875 169.418 56.6367 169.582 57.0039C169.746 57.3711 169.977 57.668 170.273 57.8945C170.578 58.1211 170.938 58.2852 171.352 58.3867C171.773 58.4883 172.234 58.5391 172.734 58.5391C173.344 58.5391 173.844 58.4531 174.234 58.2812C174.633 58.1094 174.926 57.8711 175.113 57.5664C175.309 57.2617 175.406 56.918 175.406 56.5352ZM184.863 59.5703L188.227 48.3203H191.848L186.75 62.9102C186.641 63.2305 186.492 63.5742 186.305 63.9414C186.125 64.3086 185.879 64.6562 185.566 64.9844C185.262 65.3203 184.875 65.5938 184.406 65.8047C183.945 66.0156 183.379 66.1211 182.707 66.1211C182.387 66.1211 182.125 66.1016 181.922 66.0625C181.719 66.0234 181.477 65.9688 181.195 65.8984V63.4258C181.281 63.4258 181.371 63.4258 181.465 63.4258C181.559 63.4336 181.648 63.4375 181.734 63.4375C182.18 63.4375 182.543 63.3867 182.824 63.2852C183.105 63.1836 183.332 63.0273 183.504 62.8164C183.676 62.6133 183.812 62.3477 183.914 62.0195L184.863 59.5703ZM183.457 48.3203L186.211 57.5078L186.691 61.082L184.395 61.3281L179.836 48.3203H183.457ZM200.051 57.4961C200.051 57.2539 199.98 57.0352 199.84 56.8398C199.699 56.6445 199.438 56.4648 199.055 56.3008C198.68 56.1289 198.137 55.9727 197.426 55.832C196.785 55.6914 196.188 55.5156 195.633 55.3047C195.086 55.0859 194.609 54.8242 194.203 54.5195C193.805 54.2148 193.492 53.8555 193.266 53.4414C193.039 53.0195 192.926 52.5391 192.926 52C192.926 51.4688 193.039 50.9688 193.266 50.5C193.5 50.0312 193.832 49.6172 194.262 49.2578C194.699 48.8906 195.23 48.6055 195.855 48.4023C196.488 48.1914 197.199 48.0859 197.988 48.0859C199.09 48.0859 200.035 48.2617 200.824 48.6133C201.621 48.9648 202.23 49.4492 202.652 50.0664C203.082 50.6758 203.297 51.3711 203.297 52.1523H199.922C199.922 51.8242 199.852 51.5312 199.711 51.2734C199.578 51.0078 199.367 50.8008 199.078 50.6523C198.797 50.4961 198.43 50.418 197.977 50.418C197.602 50.418 197.277 50.4844 197.004 50.6172C196.73 50.7422 196.52 50.9141 196.371 51.1328C196.23 51.3438 196.16 51.5781 196.16 51.8359C196.16 52.0312 196.199 52.207 196.277 52.3633C196.363 52.5117 196.5 52.6484 196.688 52.7734C196.875 52.8984 197.117 53.0156 197.414 53.125C197.719 53.2266 198.094 53.3203 198.539 53.4062C199.453 53.5938 200.27 53.8398 200.988 54.1445C201.707 54.4414 202.277 54.8477 202.699 55.3633C203.121 55.8711 203.332 56.5391 203.332 57.3672C203.332 57.9297 203.207 58.4453 202.957 58.9141C202.707 59.3828 202.348 59.793 201.879 60.1445C201.41 60.4883 200.848 60.7578 200.191 60.9531C199.543 61.1406 198.812 61.2344 198 61.2344C196.82 61.2344 195.82 61.0234 195 60.6016C194.188 60.1797 193.57 59.6445 193.148 58.9961C192.734 58.3398 192.527 57.668 192.527 56.9805H195.727C195.742 57.4414 195.859 57.8125 196.078 58.0938C196.305 58.375 196.59 58.5781 196.934 58.7031C197.285 58.8281 197.664 58.8906 198.07 58.8906C198.508 58.8906 198.871 58.832 199.16 58.7148C199.449 58.5898 199.668 58.4258 199.816 58.2227C199.973 58.0117 200.051 57.7695 200.051 57.4961ZM211.734 48.3203V50.7109H204.352V48.3203H211.734ZM206.18 45.1914H209.555V57.1797C209.555 57.5469 209.602 57.8281 209.695 58.0234C209.797 58.2188 209.945 58.3555 210.141 58.4336C210.336 58.5039 210.582 58.5391 210.879 58.5391C211.09 58.5391 211.277 58.5312 211.441 58.5156C211.613 58.4922 211.758 58.4688 211.875 58.4453L211.887 60.9297C211.598 61.0234 211.285 61.0977 210.949 61.1523C210.613 61.207 210.242 61.2344 209.836 61.2344C209.094 61.2344 208.445 61.1133 207.891 60.8711C207.344 60.6211 206.922 60.2227 206.625 59.6758C206.328 59.1289 206.18 58.4102 206.18 57.5195V45.1914ZM219.492 61.2344C218.508 61.2344 217.625 61.0781 216.844 60.7656C216.062 60.4453 215.398 60.0039 214.852 59.4414C214.312 58.8789 213.898 58.2266 213.609 57.4844C213.32 56.7344 213.176 55.9375 213.176 55.0938V54.625C213.176 53.6641 213.312 52.7852 213.586 51.9883C213.859 51.1914 214.25 50.5 214.758 49.9141C215.273 49.3281 215.898 48.8789 216.633 48.5664C217.367 48.2461 218.195 48.0859 219.117 48.0859C220.016 48.0859 220.812 48.2344 221.508 48.5312C222.203 48.8281 222.785 49.25 223.254 49.7969C223.73 50.3438 224.09 51 224.332 51.7656C224.574 52.5234 224.695 53.3672 224.695 54.2969V55.7031H214.617V53.4531H221.379V53.1953C221.379 52.7266 221.293 52.3086 221.121 51.9414C220.957 51.5664 220.707 51.2695 220.371 51.0508C220.035 50.832 219.605 50.7227 219.082 50.7227C218.637 50.7227 218.254 50.8203 217.934 51.0156C217.613 51.2109 217.352 51.4844 217.148 51.8359C216.953 52.1875 216.805 52.6016 216.703 53.0781C216.609 53.5469 216.562 54.0625 216.562 54.625V55.0938C216.562 55.6016 216.633 56.0703 216.773 56.5C216.922 56.9297 217.129 57.3008 217.395 57.6133C217.668 57.9258 217.996 58.168 218.379 58.3398C218.77 58.5117 219.211 58.5977 219.703 58.5977C220.312 58.5977 220.879 58.4805 221.402 58.2461C221.934 58.0039 222.391 57.6406 222.773 57.1562L224.414 58.9375C224.148 59.3203 223.785 59.6875 223.324 60.0391C222.871 60.3906 222.324 60.6797 221.684 60.9062C221.043 61.125 220.312 61.2344 219.492 61.2344ZM229.992 50.9453V61H226.605V48.3203H229.781L229.992 50.9453ZM229.523 54.2148H228.586C228.586 53.332 228.691 52.5195 228.902 51.7773C229.121 51.0273 229.438 50.3789 229.852 49.832C230.273 49.2773 230.793 48.8477 231.41 48.543C232.027 48.2383 232.742 48.0859 233.555 48.0859C234.117 48.0859 234.633 48.1719 235.102 48.3438C235.57 48.5078 235.973 48.7695 236.309 49.1289C236.652 49.4805 236.918 49.9414 237.105 50.5117C237.293 51.0742 237.387 51.75 237.387 52.5391V61H234.012V52.9141C234.012 52.3359 233.934 51.8906 233.777 51.5781C233.621 51.2656 233.398 51.0469 233.109 50.9219C232.828 50.7969 232.488 50.7344 232.09 50.7344C231.652 50.7344 231.27 50.8242 230.941 51.0039C230.621 51.1836 230.355 51.4336 230.145 51.7539C229.934 52.0664 229.777 52.4336 229.676 52.8555C229.574 53.2773 229.523 53.7305 229.523 54.2148ZM237.07 53.8281L235.863 53.9805C235.863 53.1523 235.965 52.3828 236.168 51.6719C236.379 50.9609 236.688 50.3359 237.094 49.7969C237.508 49.2578 238.02 48.8398 238.629 48.543C239.238 48.2383 239.941 48.0859 240.738 48.0859C241.348 48.0859 241.902 48.1758 242.402 48.3555C242.902 48.5273 243.328 48.8047 243.68 49.1875C244.039 49.5625 244.312 50.0547 244.5 50.6641C244.695 51.2734 244.793 52.0195 244.793 52.9023V61H241.406V52.9023C241.406 52.3164 241.328 51.8711 241.172 51.5664C241.023 51.2539 240.805 51.0391 240.516 50.9219C240.234 50.7969 239.898 50.7344 239.508 50.7344C239.102 50.7344 238.746 50.8164 238.441 50.9805C238.137 51.1367 237.883 51.3555 237.68 51.6367C237.477 51.918 237.324 52.2461 237.223 52.6211C237.121 52.9883 237.07 53.3906 237.07 53.8281Z" fill="#888888"/>
<path d="M106.688 119H99.1172L99.1641 112.672H106.688C108.25 112.672 109.57 112.297 110.648 111.547C111.742 110.797 112.57 109.68 113.133 108.195C113.711 106.695 114 104.852 114 102.664V101.188C114 99.5469 113.836 98.1094 113.508 96.875C113.195 95.625 112.727 94.5859 112.102 93.7578C111.477 92.9141 110.695 92.2812 109.758 91.8594C108.836 91.4375 107.773 91.2266 106.57 91.2266H98.9766V84.875H106.57C108.883 84.875 111 85.2734 112.922 86.0703C114.859 86.8516 116.531 87.9766 117.938 89.4453C119.359 90.8984 120.453 92.625 121.219 94.625C122 96.6094 122.391 98.8125 122.391 101.234V102.664C122.391 105.07 122 107.273 121.219 109.273C120.453 111.273 119.367 113 117.961 114.453C116.555 115.906 114.891 117.031 112.969 117.828C111.062 118.609 108.969 119 106.688 119ZM103.828 84.875V119H95.6016V84.875H103.828ZM138.586 119.469C136.523 119.469 134.68 119.148 133.055 118.508C131.43 117.852 130.055 116.953 128.93 115.812C127.82 114.672 126.969 113.359 126.375 111.875C125.797 110.391 125.508 108.82 125.508 107.164V106.273C125.508 104.414 125.766 102.695 126.281 101.117C126.797 99.5234 127.562 98.1328 128.578 96.9453C129.594 95.7578 130.867 94.8359 132.398 94.1797C133.93 93.5078 135.711 93.1719 137.742 93.1719C139.539 93.1719 141.148 93.4609 142.57 94.0391C143.992 94.6172 145.195 95.4453 146.18 96.5234C147.18 97.6016 147.938 98.9062 148.453 100.438C148.984 101.969 149.25 103.688 149.25 105.594V108.805H128.531V103.859H141.539V103.25C141.555 102.406 141.406 101.688 141.094 101.094C140.797 100.5 140.359 100.047 139.781 99.7344C139.203 99.4219 138.5 99.2656 137.672 99.2656C136.812 99.2656 136.102 99.4531 135.539 99.8281C134.992 100.203 134.562 100.719 134.25 101.375C133.953 102.016 133.742 102.758 133.617 103.602C133.492 104.445 133.43 105.336 133.43 106.273V107.164C133.43 108.102 133.555 108.953 133.805 109.719C134.07 110.484 134.445 111.141 134.93 111.688C135.43 112.219 136.023 112.633 136.711 112.93C137.414 113.227 138.211 113.375 139.102 113.375C140.18 113.375 141.242 113.172 142.289 112.766C143.336 112.359 144.234 111.688 144.984 110.75L148.57 115.016C148.055 115.75 147.32 116.461 146.367 117.148C145.43 117.836 144.305 118.398 142.992 118.836C141.68 119.258 140.211 119.469 138.586 119.469ZM160.43 98.5156V128.75H152.531V93.6406H159.891L160.43 98.5156ZM175.992 106.016V106.508C175.992 108.352 175.781 110.062 175.359 111.641C174.938 113.219 174.312 114.594 173.484 115.766C172.656 116.938 171.625 117.852 170.391 118.508C169.172 119.148 167.758 119.469 166.148 119.469C164.633 119.469 163.328 119.133 162.234 118.461C161.141 117.789 160.227 116.859 159.492 115.672C158.758 114.484 158.164 113.125 157.711 111.594C157.258 110.062 156.898 108.445 156.633 106.742V106.109C156.898 104.281 157.258 102.586 157.711 101.023C158.164 99.4453 158.758 98.0703 159.492 96.8984C160.227 95.7266 161.133 94.8125 162.211 94.1562C163.305 93.5 164.609 93.1719 166.125 93.1719C167.734 93.1719 169.148 93.4766 170.367 94.0859C171.602 94.6953 172.633 95.5703 173.461 96.7109C174.305 97.8359 174.938 99.1875 175.359 100.766C175.781 102.344 175.992 104.094 175.992 106.016ZM168.094 106.508V106.016C168.094 105.031 168.023 104.133 167.883 103.32C167.742 102.492 167.516 101.773 167.203 101.164C166.906 100.555 166.508 100.086 166.008 99.7578C165.508 99.4297 164.891 99.2656 164.156 99.2656C163.312 99.2656 162.602 99.3984 162.023 99.6641C161.461 99.9141 161.008 100.305 160.664 100.836C160.336 101.352 160.102 102 159.961 102.781C159.836 103.547 159.781 104.445 159.797 105.477V107.398C159.766 108.586 159.883 109.633 160.148 110.539C160.414 111.43 160.875 112.125 161.531 112.625C162.188 113.125 163.078 113.375 164.203 113.375C164.953 113.375 165.578 113.203 166.078 112.859C166.578 112.5 166.977 112.008 167.273 111.383C167.57 110.742 167.781 110.008 167.906 109.18C168.031 108.352 168.094 107.461 168.094 106.508ZM187.852 83V119H179.93V83H187.852ZM191.742 106.578V106.086C191.742 104.227 192.008 102.516 192.539 100.953C193.07 99.375 193.852 98.0078 194.883 96.8516C195.914 95.6953 197.188 94.7969 198.703 94.1562C200.219 93.5 201.969 93.1719 203.953 93.1719C205.953 93.1719 207.711 93.5 209.227 94.1562C210.758 94.7969 212.039 95.6953 213.07 96.8516C214.102 98.0078 214.883 99.375 215.414 100.953C215.945 102.516 216.211 104.227 216.211 106.086V106.578C216.211 108.422 215.945 110.133 215.414 111.711C214.883 113.273 214.102 114.641 213.07 115.812C212.039 116.969 210.766 117.867 209.25 118.508C207.734 119.148 205.984 119.469 204 119.469C202.016 119.469 200.258 119.148 198.727 118.508C197.195 117.867 195.914 116.969 194.883 115.812C193.852 114.641 193.07 113.273 192.539 111.711C192.008 110.133 191.742 108.422 191.742 106.578ZM199.641 106.086V106.578C199.641 107.531 199.711 108.422 199.852 109.25C199.992 110.078 200.227 110.805 200.555 111.43C200.883 112.039 201.328 112.516 201.891 112.859C202.453 113.203 203.156 113.375 204 113.375C204.828 113.375 205.516 113.203 206.062 112.859C206.625 112.516 207.07 112.039 207.398 111.43C207.727 110.805 207.961 110.078 208.102 109.25C208.242 108.422 208.312 107.531 208.312 106.578V106.086C208.312 105.164 208.242 104.297 208.102 103.484C207.961 102.656 207.727 101.93 207.398 101.305C207.07 100.664 206.625 100.164 206.062 99.8047C205.5 99.4453 204.797 99.2656 203.953 99.2656C203.125 99.2656 202.43 99.4453 201.867 99.8047C201.32 100.164 200.883 100.664 200.555 101.305C200.227 101.93 199.992 102.656 199.852 103.484C199.711 104.297 199.641 105.164 199.641 106.086ZM227.133 116.023L233.695 93.6406H242.18L231.984 122.773C231.766 123.414 231.477 124.102 231.117 124.836C230.758 125.586 230.266 126.297 229.641 126.969C229.016 127.641 228.211 128.188 227.227 128.609C226.258 129.031 225.055 129.242 223.617 129.242C222.852 129.242 222.289 129.203 221.93 129.125C221.586 129.062 221.055 128.945 220.336 128.773V123.125C220.539 123.125 220.711 123.125 220.852 123.125C221.008 123.125 221.18 123.125 221.367 123.125C222.211 123.125 222.883 123.039 223.383 122.867C223.898 122.695 224.289 122.445 224.555 122.117C224.836 121.789 225.055 121.391 225.211 120.922L227.133 116.023ZM225.469 93.6406L230.461 111.383L231.328 119.75H226.031L217.008 93.6406H225.469ZM252.211 99.0078V119H244.312V93.6406H251.719L252.211 99.0078ZM251.25 105.453L249.445 105.5C249.445 103.719 249.656 102.078 250.078 100.578C250.5 99.0781 251.125 97.7734 251.953 96.6641C252.781 95.5547 253.797 94.6953 255 94.0859C256.219 93.4766 257.625 93.1719 259.219 93.1719C260.328 93.1719 261.336 93.3438 262.242 93.6875C263.148 94.0156 263.93 94.5391 264.586 95.2578C265.242 95.9609 265.742 96.8828 266.086 98.0234C266.445 99.1484 266.625 100.5 266.625 102.078V119H258.727V103.086C258.727 102.008 258.602 101.195 258.352 100.648C258.117 100.102 257.773 99.7344 257.32 99.5469C256.867 99.3594 256.312 99.2656 255.656 99.2656C254.969 99.2656 254.352 99.4219 253.805 99.7344C253.258 100.047 252.789 100.484 252.398 101.047C252.023 101.594 251.734 102.242 251.531 102.992C251.344 103.742 251.25 104.562 251.25 105.453ZM265.734 105.453L263.531 105.5C263.531 103.719 263.727 102.078 264.117 100.578C264.523 99.0781 265.125 97.7734 265.922 96.6641C266.734 95.5547 267.742 94.6953 268.945 94.0859C270.148 93.4766 271.547 93.1719 273.141 93.1719C274.297 93.1719 275.359 93.3438 276.328 93.6875C277.297 94.0312 278.133 94.5859 278.836 95.3516C279.539 96.1172 280.086 97.1328 280.477 98.3984C280.867 99.6484 281.062 101.195 281.062 103.039V119H273.141V103.039C273.141 101.992 273.016 101.203 272.766 100.672C272.531 100.125 272.188 99.7578 271.734 99.5703C271.281 99.3672 270.742 99.2656 270.117 99.2656C269.367 99.2656 268.719 99.4219 268.172 99.7344C267.625 100.047 267.164 100.484 266.789 101.047C266.43 101.594 266.164 102.242 265.992 102.992C265.82 103.742 265.734 104.562 265.734 105.453ZM297.867 119.469C295.805 119.469 293.961 119.148 292.336 118.508C290.711 117.852 289.336 116.953 288.211 115.812C287.102 114.672 286.25 113.359 285.656 111.875C285.078 110.391 284.789 108.82 284.789 107.164V106.273C284.789 104.414 285.047 102.695 285.562 101.117C286.078 99.5234 286.844 98.1328 287.859 96.9453C288.875 95.7578 290.148 94.8359 291.68 94.1797C293.211 93.5078 294.992 93.1719 297.023 93.1719C298.82 93.1719 300.43 93.4609 301.852 94.0391C303.273 94.6172 304.477 95.4453 305.461 96.5234C306.461 97.6016 307.219 98.9062 307.734 100.438C308.266 101.969 308.531 103.688 308.531 105.594V108.805H287.812V103.859H300.82V103.25C300.836 102.406 300.688 101.688 300.375 101.094C300.078 100.5 299.641 100.047 299.062 99.7344C298.484 99.4219 297.781 99.2656 296.953 99.2656C296.094 99.2656 295.383 99.4531 294.82 99.8281C294.273 100.203 293.844 100.719 293.531 101.375C293.234 102.016 293.023 102.758 292.898 103.602C292.773 104.445 292.711 105.336 292.711 106.273V107.164C292.711 108.102 292.836 108.953 293.086 109.719C293.352 110.484 293.727 111.141 294.211 111.688C294.711 112.219 295.305 112.633 295.992 112.93C296.695 113.227 297.492 113.375 298.383 113.375C299.461 113.375 300.523 113.172 301.57 112.766C302.617 112.359 303.516 111.688 304.266 110.75L307.852 115.016C307.336 115.75 306.602 116.461 305.648 117.148C304.711 117.836 303.586 118.398 302.273 118.836C300.961 119.258 299.492 119.469 297.867 119.469ZM319.5 99.0547V119H311.602V93.6406H319.008L319.5 99.0547ZM318.562 105.453L316.711 105.5C316.711 103.562 316.945 101.836 317.414 100.32C317.883 98.7891 318.547 97.4922 319.406 96.4297C320.266 95.3672 321.289 94.5625 322.477 94.0156C323.68 93.4531 325.016 93.1719 326.484 93.1719C327.656 93.1719 328.727 93.3438 329.695 93.6875C330.68 94.0312 331.523 94.5859 332.227 95.3516C332.945 96.1172 333.492 97.1328 333.867 98.3984C334.258 99.6484 334.453 101.195 334.453 103.039V119H326.508V103.016C326.508 102 326.367 101.227 326.086 100.695C325.805 100.148 325.398 99.7734 324.867 99.5703C324.336 99.3672 323.688 99.2656 322.922 99.2656C322.109 99.2656 321.422 99.4219 320.859 99.7344C320.297 100.047 319.844 100.484 319.5 101.047C319.172 101.594 318.93 102.242 318.773 102.992C318.633 103.742 318.562 104.562 318.562 105.453ZM352.195 93.6406V99.125H336.914V93.6406H352.195ZM340.125 87.3359H348.023V110.727C348.023 111.398 348.102 111.922 348.258 112.297C348.414 112.656 348.68 112.914 349.055 113.07C349.445 113.211 349.961 113.281 350.602 113.281C351.055 113.281 351.43 113.273 351.727 113.258C352.023 113.227 352.305 113.188 352.57 113.141V118.789C351.898 119.008 351.195 119.172 350.461 119.281C349.727 119.406 348.945 119.469 348.117 119.469C346.43 119.469 344.984 119.203 343.781 118.672C342.594 118.141 341.688 117.305 341.062 116.164C340.438 115.023 340.125 113.539 340.125 111.711V87.3359Z" fill="black"/>
<path d="M1134 0H1348C1356.28 0 1363 6.71573 1363 15V148C1363 156.284 1356.28 163 1348 163H1134V0Z" fill="#037AFF"/>
<path d="M1212.5 117.5L1212.5 45.5L1284.5 45.5L1284.5 117.5L1212.5 117.5Z" fill="white" fill-opacity="0.01"/>
<path d="M1221.5 81.5125L1221.5 108.5L1275.5 108.5L1275.5 81.5" stroke="white" stroke-width="7.24" stroke-linecap="round" stroke-linejoin="round"/>
<path d="M1262 68L1248.5 54.5L1235 68" stroke="white" stroke-width="7.24" stroke-linecap="round" stroke-linejoin="round"/>
<path d="M1248.49 93.5L1248.49 54.5" stroke="white" stroke-width="7.24" stroke-linecap="round" stroke-linejoin="round"/>
</svg>
